<svg width="32" height="32" viewBox="0 0 32 32" fill="none" xmlns="http://www.w3.org/2000/svg">
<path d="M20.9696 14.9167C20.7455 14.6303 20.3368 14.5833 20.053 14.8125C19.7717 15.0431 19.7271 15.4623 19.9512 15.75L22.2327 18.6667L19.9512 21.5833C19.7271 21.8711 19.7717 22.2904 20.053 22.5208C20.174 22.6192 20.3165 22.6667 20.4604 22.6667C20.6514 22.6667 20.8411 22.5807 20.9696 22.4167L23.5771 19.0833C23.7667 18.8399 23.7667 18.4935 23.5771 18.25L20.9696 14.9167Z" fill="#1791F2"/>
<path d="M11.7425 14.8125C11.4611 14.5853 11.0524 14.6296 10.8258 14.9166L8.21844 18.25C8.02875 18.4934 8.02875 18.8398 8.21844 19.0833L10.8258 22.4167C10.9544 22.5807 11.1441 22.6667 11.3351 22.6667C11.4777 22.6667 11.6215 22.6192 11.7425 22.5208C12.0238 22.2903 12.0684 21.8711 11.8443 21.5833L9.56282 18.6666L11.8443 15.75C12.0684 15.4622 12.0238 15.0429 11.7425 14.8125Z" fill="#1791F2"/>
<path d="M18.1096 13.3874C17.7786 13.2415 17.3953 13.3971 17.2528 13.7376L13.3417 23.071C13.2004 23.4088 13.3532 23.8008 13.6842 23.946C13.7682 23.9831 13.8547 24 13.9413 24C14.1934 24 14.434 23.849 14.541 23.5958L18.4521 14.2624C18.5934 13.9246 18.4406 13.5326 18.1096 13.3874Z" fill="#1791F2"/>
<path d="M11.3335 7.99996C11.6935 7.99996 11.9853 7.70148 11.9853 7.33329C11.9853 6.9651 11.6935 6.66663 11.3335 6.66663C10.9735 6.66663 10.6816 6.9651 10.6816 7.33329C10.6816 7.70148 10.9735 7.99996 11.3335 7.99996Z" fill="#1791F2"/>
<path d="M8.72803 7.99996C9.08803 7.99996 9.37988 7.70148 9.37988 7.33329C9.37988 6.9651 9.08803 6.66663 8.72803 6.66663C8.36802 6.66663 8.07617 6.9651 8.07617 7.33329C8.07617 7.70148 8.36802 7.99996 8.72803 7.99996Z" fill="#1791F2"/>
<path d="M6.11865 7.99996C6.47866 7.99996 6.7705 7.70148 6.7705 7.33329C6.7705 6.9651 6.47866 6.66663 6.11865 6.66663C5.75864 6.66663 5.4668 6.9651 5.4668 7.33329C5.4668 7.70148 5.75864 7.99996 6.11865 7.99996Z" fill="#1791F2"/>
<path d="M27.4805 4H4.31423C2.79412 4 1.55664 5.26493 1.55664 6.82027V25.1796C1.55664 26.7351 2.79412 28 4.31423 28H27.4804C29.0006 28 30.2381 26.7351 30.2381 25.1797V6.82027C30.2381 5.26493 29.0006 4 27.4805 4ZM4.31423 5.33333H27.4804C28.2826 5.33333 28.9344 6.00067 28.9344 6.82027V8H16.5492C16.4691 8 16.3889 8.0156 16.3137 8.04493L13.1678 9.29493H2.86034V6.82027C2.86034 6.00067 3.5122 5.33333 4.31423 5.33333ZM27.4805 26.6667H4.31423C3.5122 26.6667 2.86034 25.9993 2.86034 25.1797V10.6283H13.29C13.3702 10.6283 13.4503 10.6127 13.5256 10.5833L16.6715 9.33333H28.9344V25.1797C28.9344 25.9993 28.2826 26.6667 27.4805 26.6667Z" fill="#1791F2"/>
</svg>
